<?xml version="1.0" encoding="iso-8859-1"?>
<!-- Generator: Adobe Illustrator 19.0.0, SVG Export Plug-In . SVG Version: 6.00 Build 0)  -->
<svg version="1.1" id="Layer_1" xmlns="http://www.w3.org/2000/svg" xmlns:xlink="http://www.w3.org/1999/xlink" x="0px" y="0px"
	 viewBox="0 0 512 512" style="enable-background:new 0 0 512 512;" xml:space="preserve">
<g>
	<path style="fill:#507C5C;" d="M390.765,311.863c-4.195,0-8.336-1.911-11.037-5.531c-4.544-6.089-3.292-14.71,2.797-19.254
		c9.918-7.4,15.606-18.729,15.606-31.078c0-12.351-5.688-23.676-15.604-31.078c-6.091-4.544-7.343-13.165-2.798-19.254
		c4.547-6.088,13.167-7.341,19.254-2.797c16.697,12.459,26.665,32.32,26.665,53.13c0,20.808-9.968,40.67-26.663,53.13
		C396.512,310.973,393.627,311.863,390.765,311.863z"/>
	<path style="fill:#507C5C;" d="M431.29,346.519c-3.869,0-7.711-1.621-10.433-4.782c-4.958-5.759-4.309-14.446,1.45-19.403
		c19.348-16.657,30.445-40.835,30.445-66.335s-11.096-49.678-30.445-66.336c-5.759-4.957-6.407-13.644-1.45-19.403
		c4.958-5.758,13.642-6.407,19.403-1.45c25.425,21.89,40.008,53.669,40.008,87.189s-14.584,65.299-40.008,87.189
		C437.661,345.424,434.466,346.519,431.29,346.519z"/>
</g>
<g>
	<path style="fill:#CFF09E;" d="M345.391,72.325V47.003c0-18.362-14.885-33.246-33.246-33.246H78.736
		c-18.362,0-33.245,14.885-33.245,33.246v25.322H345.391z"/>
	<path style="fill:#CFF09E;" d="M45.49,398.391v66.604c0,18.362,14.885,33.246,33.245,33.246h233.41
		c18.362,0,33.246-14.885,33.246-33.246v-66.604H45.49z"/>
</g>
<g>
	<path style="fill:#507C5C;" d="M312.146,0H78.736C52.817,0,31.732,21.086,31.732,47.003v25.322v326.066v66.606
		c0,25.917,21.086,47.003,47.004,47.003h233.41c25.917,0,47.003-21.086,47.003-47.003v-66.606v-46.077
		c0-7.599-6.161-13.758-13.758-13.758s-13.758,6.159-13.758,13.758v32.319H59.248V86.083h272.385v169.916
		c0,7.599,6.161,13.758,13.758,13.758c7.597,0,13.758-6.159,13.758-13.758V72.325V47.003C359.149,21.086,338.064,0,312.146,0z
		 M331.633,412.149v52.848c0,10.745-8.742,19.487-19.487,19.487H78.736c-10.746,0-19.488-8.742-19.488-19.487v-52.848H331.633z
		 M59.248,58.567V47.003c0-10.745,8.742-19.487,19.488-19.487h233.41c10.746,0,19.487,8.742,19.487,19.487v11.564H59.248z"/>
	<circle style="fill:#507C5C;" cx="195.447" cy="448.321" r="9.401"/>
	<path style="fill:#507C5C;" d="M195.44,471.476c-12.77,0-23.159-10.389-23.159-23.159s10.389-23.159,23.159-23.159
		s23.159,10.389,23.159,23.159S208.211,471.476,195.44,471.476z M195.44,443.959c-2.402,0-4.357,1.955-4.357,4.357
		s1.955,4.357,4.357,4.357s4.357-1.954,4.357-4.357S197.844,443.959,195.44,443.959z"/>
</g>
<g>
</g>
<g>
</g>
<g>
</g>
<g>
</g>
<g>
</g>
<g>
</g>
<g>
</g>
<g>
</g>
<g>
</g>
<g>
</g>
<g>
</g>
<g>
</g>
<g>
</g>
<g>
</g>
<g>
</g>
</svg>
